<svg xmlns="http://www.w3.org/2000/svg" version="1.1" xmlns:xlink="http://www.w3.org/1999/xlink" xmlns:svgjs="http://svgjs.dev/svgjs" width="2000" height="1500" viewBox="0 0 2000 1500"><rect width="2000" height="1500" fill="#ffffff"></rect><g transform="matrix(0.75,0,0,0.75,249.090909090909,630.4890710131616)"><svg viewBox="0 0 396 63" data-background-color="#ffffff" preserveAspectRatio="xMidYMid meet" height="318" width="2000" xmlns="http://www.w3.org/2000/svg" xmlns:xlink="http://www.w3.org/1999/xlink"><g id="tight-bounds" transform="matrix(1,0,0,1,0.2400000000000091,0.06892463803279725)"><svg viewBox="0 0 395.52 62.86215072393442" height="62.86215072393442" width="395.52"><g><svg viewBox="0 0 395.52 62.86215072393442" height="62.86215072393442" width="395.52"><g transform="matrix(1,0,0,1,0,38.85133105180328)"><svg viewBox="0 0 395.52 24.010819672131145" height="24.010819672131145" width="395.52"><g id="textblocktransform"><svg viewBox="0 0 395.52 24.010819672131145" height="24.010819672131145" width="395.52" id="textblock"><g><svg viewBox="0 0 395.52 24.010819672131145" height="24.010819672131145" width="395.52"><g transform="matrix(1,0,0,1,0,0)"><svg width="395.52" viewBox="2.6 -36.2 780.7099999999999 47.400000000000006" height="24.010819672131145" data-palette-color="#247b27"><path d="M17.4 0.6L17.4 0.6Q14.15 0.6 11.43-0.55 8.7-1.7 6.75-3.88 4.8-6.05 3.7-9.22 2.6-12.4 2.6-16.4L2.6-16.4Q2.6-20.35 3.73-23.5 4.85-26.65 6.85-28.85 8.85-31.05 11.63-32.23 14.4-33.4 17.65-33.4L17.65-33.4Q19.35-33.4 20.78-33.05 22.2-32.7 23.38-32.13 24.55-31.55 25.48-30.83 26.4-30.1 27.1-29.35L27.1-29.35 24.8-26.65Q23.55-27.95 21.9-28.85 20.25-29.75 17.75-29.75L17.75-29.75Q15.25-29.75 13.25-28.83 11.25-27.9 9.85-26.18 8.45-24.45 7.68-22 6.9-19.55 6.9-16.5L6.9-16.5Q6.9-13.4 7.63-10.93 8.35-8.45 9.73-6.7 11.1-4.95 13.13-4 15.15-3.05 17.8-3.05L17.8-3.05Q19.55-3.05 21.13-3.58 22.7-4.1 23.7-5L23.7-5 23.7-13.55 16.75-13.55 16.75-17 27.5-17 27.5-3.2Q25.9-1.55 23.3-0.48 20.7 0.6 17.4 0.6ZM39.05 0L34.95 0 34.95-24.3 38.35-24.3 38.7-19.9 38.85-19.9Q40.1-22.2 41.87-23.55 43.65-24.9 45.75-24.9L45.75-24.9Q47.2-24.9 48.35-24.4L48.35-24.4 47.55-20.8Q46.95-21 46.45-21.1 45.95-21.2 45.2-21.2L45.2-21.2Q43.65-21.2 41.97-19.95 40.3-18.7 39.05-15.6L39.05-15.6 39.05 0ZM61.65 0.6L61.65 0.6Q59.2 0.6 57.07-0.28 54.95-1.15 53.37-2.78 51.8-4.4 50.9-6.75 50-9.1 50-12.1L50-12.1Q50-15.1 50.92-17.48 51.85-19.85 53.37-21.5 54.9-23.15 56.85-24.03 58.8-24.9 60.9-24.9L60.9-24.9Q63.2-24.9 65.02-24.1 66.85-23.3 68.07-21.8 69.3-20.3 69.95-18.2 70.6-16.1 70.6-13.5L70.6-13.5Q70.6-12.85 70.57-12.23 70.55-11.6 70.45-11.15L70.45-11.15 54.05-11.15Q54.3-7.25 56.47-4.98 58.65-2.7 62.15-2.7L62.15-2.7Q63.9-2.7 65.37-3.23 66.85-3.75 68.2-4.6L68.2-4.6 69.65-1.9Q68.05-0.9 66.1-0.15 64.15 0.6 61.65 0.6ZM54-14.1L54-14.1 67-14.1Q67-17.8 65.42-19.73 63.85-21.65 61-21.65L61-21.65Q59.7-21.65 58.52-21.15 57.35-20.65 56.4-19.68 55.45-18.7 54.82-17.3 54.2-15.9 54-14.1ZM86.44 0.6L86.44 0.6Q83.99 0.6 81.87-0.28 79.74-1.15 78.17-2.78 76.59-4.4 75.69-6.75 74.79-9.1 74.79-12.1L74.79-12.1Q74.79-15.1 75.72-17.48 76.64-19.85 78.17-21.5 79.69-23.15 81.64-24.03 83.59-24.9 85.69-24.9L85.69-24.9Q87.99-24.9 89.82-24.1 91.64-23.3 92.87-21.8 94.09-20.3 94.74-18.2 95.39-16.1 95.39-13.5L95.39-13.5Q95.39-12.85 95.37-12.23 95.34-11.6 95.24-11.15L95.24-11.15 78.84-11.15Q79.09-7.25 81.27-4.98 83.44-2.7 86.94-2.7L86.94-2.7Q88.69-2.7 90.17-3.23 91.64-3.75 92.99-4.6L92.99-4.6 94.44-1.9Q92.84-0.9 90.89-0.15 88.94 0.6 86.44 0.6ZM78.79-14.1L78.79-14.1 91.79-14.1Q91.79-17.8 90.22-19.73 88.64-21.65 85.79-21.65L85.79-21.65Q84.49-21.65 83.32-21.15 82.14-20.65 81.19-19.68 80.24-18.7 79.62-17.3 78.99-15.9 78.79-14.1ZM105.49 0L101.39 0 101.39-24.3 104.79-24.3 105.14-20.8 105.29-20.8Q107.04-22.55 108.97-23.73 110.89-24.9 113.44-24.9L113.44-24.9Q117.29-24.9 119.07-22.5 120.84-20.1 120.84-15.4L120.84-15.4 120.84 0 116.74 0 116.74-14.85Q116.74-18.3 115.64-19.83 114.54-21.35 112.14-21.35L112.14-21.35Q110.24-21.35 108.79-20.4 107.34-19.45 105.49-17.6L105.49-17.6 105.49 0ZM133.54 0L129.44 0 129.44-20.95 126.14-20.95 126.14-24.05 129.44-24.3 129.44-28.15Q129.44-31.9 131.16-34.05 132.89-36.2 136.54-36.2L136.54-36.2Q137.69-36.2 138.71-35.98 139.74-35.75 140.59-35.4L140.59-35.4 139.69-32.25Q138.34-32.85 136.94-32.85L136.94-32.85Q133.54-32.85 133.54-28.15L133.54-28.15 133.54-24.3 138.69-24.3 138.69-20.95 133.54-20.95 133.54 0ZM147.44 0L143.34 0 143.34-24.3 147.44-24.3 147.44 0ZM145.44-29.3L145.44-29.3Q144.24-29.3 143.41-30.05 142.59-30.8 142.59-31.95L142.59-31.95Q142.59-33.15 143.41-33.88 144.24-34.6 145.44-34.6L145.44-34.6Q146.64-34.6 147.46-33.88 148.29-33.15 148.29-31.95L148.29-31.95Q148.29-30.8 147.46-30.05 146.64-29.3 145.44-29.3ZM165.48 0.6L165.48 0.6Q163.03 0.6 160.91-0.28 158.78-1.15 157.21-2.78 155.63-4.4 154.73-6.75 153.83-9.1 153.83-12.1L153.83-12.1Q153.83-15.1 154.76-17.48 155.68-19.85 157.21-21.5 158.73-23.15 160.68-24.03 162.63-24.9 164.73-24.9L164.73-24.9Q167.03-24.9 168.86-24.1 170.68-23.3 171.91-21.8 173.13-20.3 173.78-18.2 174.43-16.1 174.43-13.5L174.43-13.5Q174.43-12.85 174.41-12.23 174.38-11.6 174.28-11.15L174.28-11.15 157.88-11.15Q158.13-7.25 160.31-4.98 162.48-2.7 165.98-2.7L165.98-2.7Q167.73-2.7 169.21-3.23 170.68-3.75 172.03-4.6L172.03-4.6 173.48-1.9Q171.88-0.9 169.93-0.15 167.98 0.6 165.48 0.6ZM157.83-14.1L157.83-14.1 170.83-14.1Q170.83-17.8 169.26-19.73 167.68-21.65 164.83-21.65L164.83-21.65Q163.53-21.65 162.36-21.15 161.18-20.65 160.23-19.68 159.28-18.7 158.66-17.3 158.03-15.9 157.83-14.1ZM184.78 0.6L184.78 0.6Q182.43 0.6 181.43-0.8 180.43-2.2 180.43-4.9L180.43-4.9 180.43-35.6 184.53-35.6 184.53-4.6Q184.53-3.6 184.88-3.2 185.23-2.8 185.68-2.8L185.68-2.8Q185.88-2.8 186.06-2.8 186.23-2.8 186.58-2.9L186.58-2.9 187.13 0.2Q186.73 0.4 186.18 0.5 185.63 0.6 184.78 0.6ZM201.48 0.6L201.48 0.6Q196.88 0.6 194.15-2.7 191.43-6 191.43-12.1L191.43-12.1Q191.43-15.05 192.3-17.43 193.18-19.8 194.63-21.45 196.08-23.1 197.98-24 199.88-24.9 201.98-24.9L201.98-24.9Q204.08-24.9 205.63-24.15 207.18-23.4 208.78-22.1L208.78-22.1 208.58-26.25 208.58-35.6 212.73-35.6 212.73 0 209.33 0 208.98-2.85 208.83-2.85Q207.38-1.45 205.5-0.43 203.63 0.6 201.48 0.6ZM202.38-2.85L202.38-2.85Q204.08-2.85 205.58-3.68 207.08-4.5 208.58-6.2L208.58-6.2 208.58-18.9Q207.03-20.3 205.6-20.88 204.18-21.45 202.68-21.45L202.68-21.45Q201.23-21.45 199.95-20.78 198.68-20.1 197.73-18.88 196.78-17.65 196.23-15.95 195.68-14.25 195.68-12.15L195.68-12.15Q195.68-7.75 197.43-5.3 199.18-2.85 202.38-2.85ZM235.47 0L231.32 0 231.32-32.8 235.47-32.8 235.47 0ZM248.17 0L244.07 0 244.07-24.3 247.47-24.3 247.82-20.8 247.97-20.8Q249.72-22.55 251.65-23.73 253.57-24.9 256.12-24.9L256.12-24.9Q259.97-24.9 261.75-22.5 263.52-20.1 263.52-15.4L263.52-15.4 263.52 0 259.42 0 259.42-14.85Q259.42-18.3 258.32-19.83 257.22-21.35 254.82-21.35L254.82-21.35Q252.92-21.35 251.47-20.4 250.02-19.45 248.17-17.6L248.17-17.6 248.17 0ZM279.07 0.6L279.07 0.6Q277.12 0.6 275.79 0 274.47-0.6 273.64-1.65 272.82-2.7 272.47-4.2 272.12-5.7 272.12-7.5L272.12-7.5 272.12-20.95 268.52-20.95 268.52-24.05 272.32-24.3 272.82-31.1 276.27-31.1 276.27-24.3 282.82-24.3 282.82-20.95 276.27-20.95 276.27-7.45Q276.27-5.2 277.09-3.98 277.92-2.75 280.02-2.75L280.02-2.75Q280.67-2.75 281.42-2.95 282.17-3.15 282.77-3.4L282.77-3.4 283.57-0.3Q282.57 0.05 281.39 0.33 280.22 0.6 279.07 0.6ZM297.47 0.6L297.47 0.6Q295.02 0.6 292.89-0.28 290.77-1.15 289.19-2.78 287.62-4.4 286.72-6.75 285.82-9.1 285.82-12.1L285.82-12.1Q285.82-15.1 286.74-17.48 287.67-19.85 289.19-21.5 290.72-23.15 292.67-24.03 294.62-24.9 296.72-24.9L296.72-24.9Q299.02-24.9 300.84-24.1 302.67-23.3 303.89-21.8 305.12-20.3 305.77-18.2 306.42-16.1 306.42-13.5L306.42-13.5Q306.42-12.85 306.39-12.23 306.37-11.6 306.27-11.15L306.27-11.15 289.87-11.15Q290.12-7.25 292.29-4.98 294.47-2.7 297.97-2.7L297.97-2.7Q299.72-2.7 301.19-3.23 302.67-3.75 304.02-4.6L304.02-4.6 305.47-1.9Q303.87-0.9 301.92-0.15 299.97 0.6 297.47 0.6ZM289.82-14.1L289.82-14.1 302.82-14.1Q302.82-17.8 301.24-19.73 299.67-21.65 296.82-21.65L296.82-21.65Q295.52-21.65 294.34-21.15 293.17-20.65 292.22-19.68 291.27-18.7 290.64-17.3 290.02-15.9 289.82-14.1ZM316.51 0L312.41 0 312.41-24.3 315.81-24.3 316.16-19.9 316.31-19.9Q317.56-22.2 319.34-23.55 321.11-24.9 323.21-24.9L323.21-24.9Q324.66-24.9 325.81-24.4L325.81-24.4 325.01-20.8Q324.41-21 323.91-21.1 323.41-21.2 322.66-21.2L322.66-21.2Q321.11-21.2 319.44-19.95 317.76-18.7 316.51-15.6L316.51-15.6 316.51 0ZM333.86 0L329.76 0 329.76-24.3 333.16-24.3 333.51-20.8 333.66-20.8Q335.41-22.55 337.34-23.73 339.26-24.9 341.81-24.9L341.81-24.9Q345.66-24.9 347.44-22.5 349.21-20.1 349.21-15.4L349.21-15.4 349.21 0 345.11 0 345.11-14.85Q345.11-18.3 344.01-19.83 342.91-21.35 340.51-21.35L340.51-21.35Q338.61-21.35 337.16-20.4 335.71-19.45 333.86-17.6L333.86-17.6 333.86 0ZM362.71 0.6L362.71 0.6Q359.66 0.6 357.63-1.2 355.61-3 355.61-6.3L355.61-6.3Q355.61-10.3 359.16-12.43 362.71-14.55 370.51-15.4L370.51-15.4Q370.51-16.55 370.28-17.65 370.06-18.75 369.51-19.6 368.96-20.45 367.98-20.98 367.01-21.5 365.51-21.5L365.51-21.5Q363.41-21.5 361.56-20.7 359.71-19.9 358.26-18.9L358.26-18.9 356.66-21.75Q358.36-22.85 360.81-23.88 363.26-24.9 366.21-24.9L366.21-24.9Q370.66-24.9 372.66-22.18 374.66-19.45 374.66-14.9L374.66-14.9 374.66 0 371.26 0 370.91-2.9 370.76-2.9Q369.01-1.45 367.01-0.43 365.01 0.6 362.71 0.6ZM363.91-2.7L363.91-2.7Q365.66-2.7 367.21-3.53 368.76-4.35 370.51-5.95L370.51-5.95 370.51-12.7Q367.46-12.3 365.38-11.75 363.31-11.2 362.03-10.45 360.76-9.7 360.18-8.72 359.61-7.75 359.61-6.6L359.61-6.6Q359.61-4.5 360.86-3.6 362.11-2.7 363.91-2.7ZM389.26 0.6L389.26 0.6Q387.31 0.6 385.98 0 384.66-0.6 383.83-1.65 383.01-2.7 382.66-4.2 382.31-5.7 382.31-7.5L382.31-7.5 382.31-20.95 378.71-20.95 378.71-24.05 382.51-24.3 383.01-31.1 386.46-31.1 386.46-24.3 393.01-24.3 393.01-20.95 386.46-20.95 386.46-7.45Q386.46-5.2 387.28-3.98 388.11-2.75 390.21-2.75L390.21-2.75Q390.86-2.75 391.61-2.95 392.36-3.15 392.96-3.4L392.96-3.4 393.76-0.3Q392.76 0.05 391.58 0.33 390.41 0.6 389.26 0.6ZM402.6 0L398.5 0 398.5-24.3 402.6-24.3 402.6 0ZM400.6-29.3L400.6-29.3Q399.4-29.3 398.58-30.05 397.75-30.8 397.75-31.95L397.75-31.95Q397.75-33.15 398.58-33.88 399.4-34.6 400.6-34.6L400.6-34.6Q401.8-34.6 402.63-33.88 403.45-33.15 403.45-31.95L403.45-31.95Q403.45-30.8 402.63-30.05 401.8-29.3 400.6-29.3ZM420.25 0.6L420.25 0.6Q418 0.6 415.98-0.25 413.95-1.1 412.4-2.73 410.85-4.35 409.93-6.73 409-9.1 409-12.1L409-12.1Q409-15.15 409.93-17.53 410.85-19.9 412.4-21.55 413.95-23.2 415.98-24.05 418-24.9 420.25-24.9L420.25-24.9Q422.5-24.9 424.53-24.05 426.55-23.2 428.1-21.55 429.65-19.9 430.58-17.53 431.5-15.15 431.5-12.1L431.5-12.1Q431.5-9.1 430.58-6.73 429.65-4.35 428.1-2.73 426.55-1.1 424.53-0.25 422.5 0.6 420.25 0.6ZM420.25-2.8L420.25-2.8Q421.8-2.8 423.1-3.48 424.4-4.15 425.33-5.38 426.25-6.6 426.75-8.3 427.25-10 427.25-12.1L427.25-12.1Q427.25-14.2 426.75-15.93 426.25-17.65 425.33-18.9 424.4-20.15 423.1-20.83 421.8-21.5 420.25-21.5L420.25-21.5Q418.7-21.5 417.4-20.83 416.1-20.15 415.18-18.9 414.25-17.65 413.75-15.93 413.25-14.2 413.25-12.1L413.25-12.1Q413.25-10 413.75-8.3 414.25-6.6 415.18-5.38 416.1-4.15 417.4-3.48 418.7-2.8 420.25-2.8ZM442 0L437.9 0 437.9-24.3 441.3-24.3 441.65-20.8 441.8-20.8Q443.55-22.55 445.47-23.73 447.4-24.9 449.95-24.9L449.95-24.9Q453.8-24.9 455.57-22.5 457.35-20.1 457.35-15.4L457.35-15.4 457.35 0 453.25 0 453.25-14.85Q453.25-18.3 452.15-19.83 451.05-21.35 448.65-21.35L448.65-21.35Q446.75-21.35 445.3-20.4 443.85-19.45 442-17.6L442-17.6 442 0ZM470.85 0.6L470.85 0.6Q467.8 0.6 465.77-1.2 463.75-3 463.75-6.3L463.75-6.3Q463.75-10.3 467.3-12.43 470.85-14.55 478.65-15.4L478.65-15.4Q478.65-16.55 478.42-17.65 478.2-18.75 477.65-19.6 477.1-20.45 476.12-20.98 475.15-21.5 473.65-21.5L473.65-21.5Q471.55-21.5 469.7-20.7 467.85-19.9 466.4-18.9L466.4-18.9 464.8-21.75Q466.5-22.85 468.95-23.88 471.4-24.9 474.35-24.9L474.35-24.9Q478.8-24.9 480.8-22.18 482.8-19.45 482.8-14.9L482.8-14.9 482.8 0 479.4 0 479.05-2.9 478.9-2.9Q477.15-1.45 475.15-0.43 473.15 0.6 470.85 0.6ZM472.05-2.7L472.05-2.7Q473.8-2.7 475.35-3.53 476.9-4.35 478.65-5.95L478.65-5.95 478.65-12.7Q475.6-12.3 473.52-11.75 471.45-11.2 470.17-10.45 468.9-9.7 468.32-8.72 467.75-7.75 467.75-6.6L467.75-6.6Q467.75-4.5 469-3.6 470.25-2.7 472.05-2.7ZM494.79 0.6L494.79 0.6Q492.44 0.6 491.44-0.8 490.44-2.2 490.44-4.9L490.44-4.9 490.44-35.6 494.54-35.6 494.54-4.6Q494.54-3.6 494.89-3.2 495.24-2.8 495.69-2.8L495.69-2.8Q495.89-2.8 496.07-2.8 496.24-2.8 496.59-2.9L496.59-2.9 497.14 0.2Q496.74 0.4 496.19 0.5 495.64 0.6 494.79 0.6ZM524.59 0L520.39 0 520.39-29.3 510.49-29.3 510.49-32.8 534.49-32.8 534.49-29.3 524.59-29.3 524.59 0ZM546.54 0.6L546.54 0.6Q544.09 0.6 541.96-0.28 539.84-1.15 538.26-2.78 536.69-4.4 535.79-6.75 534.89-9.1 534.89-12.1L534.89-12.1Q534.89-15.1 535.81-17.48 536.74-19.85 538.26-21.5 539.79-23.15 541.74-24.03 543.69-24.9 545.79-24.9L545.79-24.9Q548.09-24.9 549.91-24.1 551.74-23.3 552.96-21.8 554.19-20.3 554.84-18.2 555.49-16.1 555.49-13.5L555.49-13.5Q555.49-12.85 555.46-12.23 555.44-11.6 555.34-11.15L555.34-11.15 538.94-11.15Q539.19-7.25 541.36-4.98 543.54-2.7 547.04-2.7L547.04-2.7Q548.79-2.7 550.26-3.23 551.74-3.75 553.09-4.6L553.09-4.6 554.54-1.9Q552.94-0.9 550.99-0.15 549.04 0.6 546.54 0.6ZM538.89-14.1L538.89-14.1 551.89-14.1Q551.89-17.8 550.31-19.73 548.74-21.65 545.89-21.65L545.89-21.65Q544.59-21.65 543.41-21.15 542.24-20.65 541.29-19.68 540.34-18.7 539.71-17.3 539.09-15.9 538.89-14.1ZM571.08 0.6L571.08 0.6Q568.68 0.6 566.58-0.25 564.48-1.1 562.96-2.73 561.43-4.35 560.56-6.73 559.68-9.1 559.68-12.1L559.68-12.1Q559.68-15.15 560.63-17.53 561.58-19.9 563.18-21.55 564.78-23.2 566.91-24.05 569.03-24.9 571.38-24.9L571.38-24.9Q573.78-24.9 575.48-24.05 577.18-23.2 578.48-22.05L578.48-22.05 576.38-19.35Q575.33-20.3 574.16-20.9 572.98-21.5 571.53-21.5L571.53-21.5Q569.88-21.5 568.48-20.83 567.08-20.15 566.08-18.9 565.08-17.65 564.51-15.93 563.93-14.2 563.93-12.1L563.93-12.1Q563.93-10 564.48-8.3 565.03-6.6 566.01-5.38 566.98-4.15 568.38-3.48 569.78-2.8 571.43-2.8L571.43-2.8Q573.13-2.8 574.56-3.53 575.98-4.25 577.13-5.25L577.13-5.25 578.93-2.5Q577.28-1.05 575.28-0.23 573.28 0.6 571.08 0.6ZM588.38 0L584.28 0 584.28-35.6 588.38-35.6 588.38-25.9 588.23-20.9Q589.98-22.55 591.88-23.73 593.78-24.9 596.33-24.9L596.33-24.9Q600.18-24.9 601.95-22.5 603.73-20.1 603.73-15.4L603.73-15.4 603.73 0 599.63 0 599.63-14.85Q599.63-18.3 598.53-19.83 597.43-21.35 595.03-21.35L595.03-21.35Q593.13-21.35 591.68-20.4 590.23-19.45 588.38-17.6L588.38-17.6 588.38 0ZM615.58 0L611.48 0 611.48-24.3 614.88-24.3 615.23-20.8 615.38-20.8Q617.13-22.55 619.05-23.73 620.98-24.9 623.53-24.9L623.53-24.9Q627.38-24.9 629.15-22.5 630.93-20.1 630.93-15.4L630.93-15.4 630.93 0 626.83 0 626.83-14.85Q626.83-18.3 625.73-19.83 624.63-21.35 622.23-21.35L622.23-21.35Q620.33-21.35 618.88-20.4 617.43-19.45 615.58-17.6L615.58-17.6 615.58 0ZM648.27 0.6L648.27 0.6Q646.02 0.6 644-0.25 641.97-1.1 640.42-2.73 638.87-4.35 637.95-6.73 637.02-9.1 637.02-12.1L637.02-12.1Q637.02-15.15 637.95-17.53 638.87-19.9 640.42-21.55 641.97-23.2 644-24.05 646.02-24.9 648.27-24.9L648.27-24.9Q650.52-24.9 652.55-24.05 654.57-23.2 656.12-21.55 657.67-19.9 658.6-17.53 659.52-15.15 659.52-12.1L659.52-12.1Q659.52-9.1 658.6-6.73 657.67-4.35 656.12-2.73 654.57-1.1 652.55-0.25 650.52 0.6 648.27 0.6ZM648.27-2.8L648.27-2.8Q649.82-2.8 651.12-3.48 652.42-4.15 653.35-5.38 654.27-6.6 654.77-8.3 655.27-10 655.27-12.1L655.27-12.1Q655.27-14.2 654.77-15.93 654.27-17.65 653.35-18.9 652.42-20.15 651.12-20.83 649.82-21.5 648.27-21.5L648.27-21.5Q646.72-21.5 645.42-20.83 644.12-20.15 643.2-18.9 642.27-17.65 641.77-15.93 641.27-14.2 641.27-12.1L641.27-12.1Q641.27-10 641.77-8.3 642.27-6.6 643.2-5.38 644.12-4.15 645.42-3.48 646.72-2.8 648.27-2.8ZM670.27 0.6L670.27 0.6Q667.92 0.6 666.92-0.8 665.92-2.2 665.92-4.9L665.92-4.9 665.92-35.6 670.02-35.6 670.02-4.6Q670.02-3.6 670.37-3.2 670.72-2.8 671.17-2.8L671.17-2.8Q671.37-2.8 671.55-2.8 671.72-2.8 672.07-2.9L672.07-2.9 672.62 0.2Q672.22 0.4 671.67 0.5 671.12 0.6 670.27 0.6ZM688.12 0.6L688.12 0.6Q685.87 0.6 683.84-0.25 681.82-1.1 680.27-2.73 678.72-4.35 677.79-6.73 676.87-9.1 676.87-12.1L676.87-12.1Q676.87-15.15 677.79-17.53 678.72-19.9 680.27-21.55 681.82-23.2 683.84-24.05 685.87-24.9 688.12-24.9L688.12-24.9Q690.37-24.9 692.39-24.05 694.42-23.2 695.97-21.55 697.52-19.9 698.44-17.53 699.37-15.15 699.37-12.1L699.37-12.1Q699.37-9.1 698.44-6.73 697.52-4.35 695.97-2.73 694.42-1.1 692.39-0.25 690.37 0.6 688.12 0.6ZM688.12-2.8L688.12-2.8Q689.67-2.8 690.97-3.48 692.27-4.15 693.19-5.38 694.12-6.6 694.62-8.3 695.12-10 695.12-12.1L695.12-12.1Q695.12-14.2 694.62-15.93 694.12-17.65 693.19-18.9 692.27-20.15 690.97-20.83 689.67-21.5 688.12-21.5L688.12-21.5Q686.57-21.5 685.27-20.83 683.97-20.15 683.04-18.9 682.12-17.65 681.62-15.93 681.12-14.2 681.12-12.1L681.12-12.1Q681.12-10 681.62-8.3 682.12-6.6 683.04-5.38 683.97-4.15 685.27-3.48 686.57-2.8 688.12-2.8ZM713.97 11.2L713.97 11.2Q711.72 11.2 709.87 10.78 708.02 10.35 706.69 9.5 705.37 8.65 704.64 7.45 703.92 6.25 703.92 4.65L703.92 4.65Q703.92 3.1 704.87 1.7 705.82 0.3 707.47-0.85L707.47-0.85 707.47-1.05Q706.57-1.6 705.94-2.58 705.32-3.55 705.32-5L705.32-5Q705.32-6.55 706.17-7.7 707.02-8.85 707.97-9.5L707.97-9.5 707.97-9.7Q706.77-10.7 705.79-12.38 704.82-14.05 704.82-16.25L704.82-16.25Q704.82-18.25 705.54-19.85 706.27-21.45 707.52-22.58 708.77-23.7 710.44-24.3 712.12-24.9 713.97-24.9L713.97-24.9Q714.97-24.9 715.84-24.73 716.72-24.55 717.42-24.3L717.42-24.3 725.87-24.3 725.87-21.15 720.87-21.15Q721.72-20.3 722.29-19 722.87-17.7 722.87-16.15L722.87-16.15Q722.87-14.2 722.17-12.63 721.47-11.05 720.27-9.98 719.07-8.9 717.44-8.3 715.82-7.7 713.97-7.7L713.97-7.7Q713.07-7.7 712.12-7.93 711.17-8.15 710.32-8.55L710.32-8.55Q709.67-8 709.22-7.33 708.77-6.65 708.77-5.65L708.77-5.65Q708.77-4.5 709.67-3.75 710.57-3 713.07-3L713.07-3 717.77-3Q722.02-3 724.14-1.63 726.27-0.25 726.27 2.8L726.27 2.8Q726.27 4.5 725.42 6.03 724.57 7.55 722.97 8.7 721.37 9.85 719.09 10.53 716.82 11.2 713.97 11.2ZM713.97-10.45L713.97-10.45Q715.02-10.45 715.94-10.85 716.87-11.25 717.59-12 718.32-12.75 718.72-13.83 719.12-14.9 719.12-16.25L719.12-16.25Q719.12-18.95 717.62-20.43 716.12-21.9 713.97-21.9L713.97-21.9Q711.82-21.9 710.32-20.43 708.82-18.95 708.82-16.25L708.82-16.25Q708.82-14.9 709.22-13.83 709.62-12.75 710.34-12 711.07-11.25 711.99-10.85 712.92-10.45 713.97-10.45ZM714.57 8.35L714.57 8.35Q716.32 8.35 717.74 7.93 719.17 7.5 720.17 6.83 721.17 6.15 721.72 5.25 722.27 4.35 722.27 3.4L722.27 3.4Q722.27 1.7 721.02 1.05 719.77 0.4 717.37 0.4L717.37 0.4 713.17 0.4Q712.47 0.4 711.64 0.33 710.82 0.25 710.02 0L710.02 0Q708.72 0.95 708.12 2 707.52 3.05 707.52 4.1L707.52 4.1Q707.52 6.05 709.39 7.2 711.27 8.35 714.57 8.35ZM735.06 0L730.96 0 730.96-24.3 735.06-24.3 735.06 0ZM733.06-29.3L733.06-29.3Q731.86-29.3 731.04-30.05 730.21-30.8 730.21-31.95L730.21-31.95Q730.21-33.15 731.04-33.88 731.86-34.6 733.06-34.6L733.06-34.6Q734.26-34.6 735.09-33.88 735.91-33.15 735.91-31.95L735.91-31.95Q735.91-30.8 735.09-30.05 734.26-29.3 733.06-29.3ZM753.11 0.6L753.11 0.6Q750.66 0.6 748.54-0.28 746.41-1.15 744.84-2.78 743.26-4.4 742.36-6.75 741.46-9.1 741.46-12.1L741.46-12.1Q741.46-15.1 742.39-17.48 743.31-19.85 744.84-21.5 746.36-23.15 748.31-24.03 750.26-24.9 752.36-24.9L752.36-24.9Q754.66-24.9 756.49-24.1 758.31-23.3 759.54-21.8 760.76-20.3 761.41-18.2 762.06-16.1 762.06-13.5L762.06-13.5Q762.06-12.85 762.04-12.23 762.01-11.6 761.91-11.15L761.91-11.15 745.51-11.15Q745.76-7.25 747.94-4.98 750.11-2.7 753.61-2.7L753.61-2.7Q755.36-2.7 756.84-3.23 758.31-3.75 759.66-4.6L759.66-4.6 761.11-1.9Q759.51-0.9 757.56-0.15 755.61 0.6 753.11 0.6ZM745.46-14.1L745.46-14.1 758.46-14.1Q758.46-17.8 756.89-19.73 755.31-21.65 752.46-21.65L752.46-21.65Q751.16-21.65 749.99-21.15 748.81-20.65 747.86-19.68 746.91-18.7 746.29-17.3 745.66-15.9 745.46-14.1ZM774.41 0.6L774.41 0.6Q771.81 0.6 769.46-0.35 767.11-1.3 765.36-2.75L765.36-2.75 767.41-5.5Q769.01-4.2 770.68-3.4 772.36-2.6 774.56-2.6L774.56-2.6Q776.96-2.6 778.16-3.7 779.36-4.8 779.36-6.4L779.36-6.4Q779.36-7.35 778.86-8.05 778.36-8.75 777.58-9.28 776.81-9.8 775.81-10.2 774.81-10.6 773.81-11L773.81-11Q772.51-11.45 771.21-12.03 769.91-12.6 768.88-13.43 767.86-14.25 767.21-15.35 766.56-16.45 766.56-18L766.56-18Q766.56-19.45 767.13-20.73 767.71-22 768.78-22.93 769.86-23.85 771.41-24.38 772.96-24.9 774.91-24.9L774.91-24.9Q777.21-24.9 779.13-24.1 781.06-23.3 782.46-22.15L782.46-22.15 780.51-19.55Q779.26-20.5 777.91-21.1 776.56-21.7 774.96-21.7L774.96-21.7Q772.66-21.7 771.58-20.65 770.51-19.6 770.51-18.2L770.51-18.2Q770.51-17.35 770.96-16.73 771.41-16.1 772.16-15.63 772.91-15.15 773.88-14.78 774.86-14.4 775.91-14L775.91-14Q777.21-13.5 778.53-12.95 779.86-12.4 780.91-11.58 781.96-10.75 782.63-9.55 783.31-8.35 783.31-6.65L783.31-6.65Q783.31-5.15 782.73-3.85 782.16-2.55 781.03-1.55 779.91-0.55 778.23 0.03 776.56 0.6 774.41 0.6Z" opacity="1" transform="matrix(1,0,0,1,0,0)" fill="#247b27" class="wordmark-text-0" data-fill-palette-color="primary" id="text-0"></path></svg></g></svg></g></svg></g></svg></g><g transform="matrix(1,0,0,1,181.16852360655736,0)"><svg viewBox="0 0 33.18295278688525 33.182952786885245" height="33.182952786885245" width="33.18295278688525"><g><svg></svg></g><g id="icon-0"><svg viewBox="0 0 33.18295278688525 33.182952786885245" height="33.182952786885245" width="33.18295278688525"><g><path transform="scale(0.33183,0.33183)" d="M30 100c-16.569 0-30-13.431-30-30v-40c0-16.569 13.431-30 30-30h40c16.569 0 30 13.431 30 30v40c0 16.569-13.431 30-30 30z" fill="#247b27" fill-rule="nonzero" stroke="none" stroke-width="1" stroke-linecap="butt" stroke-linejoin="miter" stroke-miterlimit="10" stroke-dasharray="" stroke-dashoffset="0" font-family="none" font-weight="none" font-size="none" text-anchor="none" style="mix-blend-mode: normal" data-fill-palette-color="accent"></path></g><g transform="matrix(1,0,0,1,8.563342654680067,6.636590557377049)"><svg viewBox="0 0 16.056267477525118 19.909771672131146" height="19.909771672131146" width="16.056267477525118"><g><svg xmlns="http://www.w3.org/2000/svg" xmlns:xlink="http://www.w3.org/1999/xlink" version="1.1" x="0" y="0" viewBox="7 1 50 62" style="enable-background:new 0 0 64 64;" xml:space="preserve" height="19.909771672131146" width="16.056267477525118" class="icon-dxe-0" data-fill-palette-color="quaternary" id="dxe-0"><g fill="#ffffff" data-fill-palette-color="quaternary"><path d="M45.378 7C42.08 3.327 37.313 1 32 1S21.92 3.327 18.622 7H7V63H57V7zM47.949 18H45.999V20H47.949A15.94 15.94 0 0 1 42.966 30.619C42.126 29.928 40.595 28.872 38.378 28.076 39.18 25.55 39.828 22.729 39.963 20H44V18H39.963C39.829 15.271 39.18 12.45 38.378 9.924 40.595 9.128 42.126 8.072 42.966 7.381A15.93 15.93 0 0 1 47.949 18M49.536 15H51V55H38.92C38.432 51.614 35.519 49 32 49S25.568 51.614 25.08 55H13V15H14.464A18 18 0 0 0 14 19C14 28.925 22.075 37 32 37S50 28.925 50 19C50 17.624 49.83 16.289 49.536 15M32 61A5.01 5.01 0 0 1 27.101 57H29.184C29.598 58.161 30.698 59 32 59S34.402 58.161 34.816 57H36.899A5.01 5.01 0 0 1 32 61M31 56A1 1 0 1 1 33 56 1 1 0 0 1 31 56M34.816 55C34.402 53.839 33.302 53 32 53S29.598 53.839 29.184 55H27.101C27.566 52.721 29.585 51 32 51S36.434 52.721 36.899 55zM24.037 20C24.171 22.729 24.82 25.55 25.622 28.076 23.405 28.872 21.874 29.928 21.034 30.619A15.93 15.93 0 0 1 16.051 20zM30.574 3.072C30.715 3.06 30.858 3.06 31 3.051V8.967A17 17 0 0 1 28.207 8.583 55 55 0 0 1 30.574 3.072M26.272 8.02C24.583 7.406 23.361 6.635 22.614 6.071A15.9 15.9 0 0 1 28.147 3.489 56 56 0 0 0 26.272 8.02M35.793 8.583A17 17 0 0 1 33 8.967V3.051C33.142 3.06 33.285 3.06 33.426 3.073A55 55 0 0 1 35.793 8.583M35.852 3.489A15.9 15.9 0 0 1 41.385 6.071C40.638 6.635 39.416 7.407 37.727 8.02A55 55 0 0 0 35.852 3.489M33.426 34.928C33.286 34.94 33.142 34.941 33 34.95V29.034A17 17 0 0 1 35.793 29.418 55 55 0 0 1 33.426 34.928M37.728 29.98C39.417 30.594 40.64 31.366 41.386 31.929A15.9 15.9 0 0 1 35.853 34.511 56 56 0 0 0 37.728 29.98M30.574 34.928A55 55 0 0 1 28.207 29.417 17 17 0 0 1 31 29.033V34.949C30.859 34.94 30.715 34.94 30.574 34.928M28.148 34.511A15.9 15.9 0 0 1 22.615 31.929C23.362 31.365 24.584 30.593 26.273 29.98A55 55 0 0 0 28.148 34.511M33 27.033V20H37.961C37.824 22.506 37.209 25.137 36.451 27.51A19 19 0 0 0 33 27.033M33 18V10.967A19 19 0 0 0 36.451 10.49C37.21 12.863 37.825 15.494 37.961 18zM31 10.967V18H26.039C26.176 15.494 26.791 12.863 27.549 10.49 28.589 10.734 29.738 10.905 31 10.967M31 20V27.033A19 19 0 0 0 27.549 27.51C26.79 25.137 26.175 22.506 26.039 20zM21.034 7.381C21.874 8.072 23.405 9.128 25.622 9.924 24.82 12.45 24.172 15.271 24.037 18H16.051A15.93 15.93 0 0 1 21.034 7.381M9 61V9H17.044A18 18 0 0 0 15.05 13H11V57H25.08A7 7 0 0 0 27.111 61zM55 61H36.889A7 7 0 0 0 38.92 57H53V13H49V13.137A18 18 0 0 0 46.956 9H55z" fill="#ffffff" data-fill-palette-color="quaternary"></path><rect x="31" y="44" width="2" height="3" fill="#ffffff" data-fill-palette-color="quaternary"></rect><rect x="31" y="39" width="2" height="3" fill="#ffffff" data-fill-palette-color="quaternary"></rect><rect x="24.828" y="46.005" transform="matrix(0.8089 -0.5879 0.5879 0.8089 -22.9935 24.2611)" width="1.999" height="3" fill="#ffffff" data-fill-palette-color="quaternary"></rect><rect x="21.89" y="41.96" transform="matrix(0.8088 -0.5881 0.5881 0.8088 -21.1811 21.7691)" width="1.999" height="3" fill="#ffffff" data-fill-palette-color="quaternary"></rect><rect x="36.672" y="46.506" transform="matrix(0.5881 -0.8088 0.8088 0.5881 -22.6986 50.4438)" width="3" height="1.999" fill="#ffffff" data-fill-palette-color="quaternary"></rect><rect x="39.61" y="42.461" transform="matrix(0.5881 -0.8088 0.8088 0.5881 -18.2165 51.1542)" width="3" height="1.999" fill="#ffffff" data-fill-palette-color="quaternary"></rect></g></svg></g></svg></g></svg></g></svg></g><g></g></svg></g><defs></defs></svg><rect width="395.52" height="62.86215072393442" fill="none" stroke="none" visibility="hidden"></rect></g></svg></g></svg>